<?xml version="1.0" encoding="UTF-8" standalone="no"?>
<!DOCTYPE svg PUBLIC "-//W3C//DTD SVG 1.1//EN"
 "http://www.w3.org/Graphics/SVG/1.1/DTD/svg11.dtd">
<!-- Generated by graphviz version 12.1.0 (0)
 -->
<!-- Pages: 1 -->
<svg width="2603pt" height="3061pt"
 viewBox="0.00 0.00 2603.16 3061.25" xmlns="http://www.w3.org/2000/svg" xmlns:xlink="http://www.w3.org/1999/xlink">
<g id="graph0" class="graph" transform="scale(1 1) rotate(0) translate(4 3057.25)">
<polygon fill="white" stroke="none" points="-4,4 -4,-3057.25 2599.16,-3057.25 2599.16,4 -4,4"/>
<!-- 0 -->
<g id="node1" class="node">
<title>0</title>
<ellipse fill="none" stroke="black" cx="1766.48" cy="-3035.25" rx="62.04" ry="18"/>
<text text-anchor="middle" x="1766.48" y="-3029.82" font-family="Times,serif" font-size="14.00">title: Eleonore</text>
</g>
<!-- 14 -->
<g id="node15" class="node">
<title>14</title>
<ellipse fill="none" stroke="black" cx="1492.48" cy="-2947.5" rx="108.95" ry="18"/>
<text text-anchor="middle" x="1492.48" y="-2942.07" font-family="Times,serif" font-size="14.00">&#45;&gt; Hi. Wait are you flying?</text>
</g>
<!-- 0&#45;&gt;14 -->
<g id="edge1" class="edge">
<title>0&#45;&gt;14</title>
<path fill="none" stroke="black" d="M1725.46,-3021.41C1679.61,-3007.06 1604.92,-2983.69 1552.5,-2967.28"/>
<polygon fill="black" stroke="black" points="1553.7,-2963.99 1543.12,-2964.35 1551.61,-2970.67 1553.7,-2963.99"/>
<text text-anchor="middle" x="1657.4" y="-2985.95" font-family="Times,serif" font-size="14.00">0</text>
</g>
<!-- 17 -->
<g id="node18" class="node">
<title>17</title>
<ellipse fill="none" stroke="black" cx="1766.48" cy="-2947.5" rx="146.87" ry="18"/>
<text text-anchor="middle" x="1766.48" y="-2942.07" font-family="Times,serif" font-size="14.00">&#45;&gt; Hey, what are you doing out here?</text>
</g>
<!-- 0&#45;&gt;17 -->
<g id="edge6" class="edge">
<title>0&#45;&gt;17</title>
<path fill="none" stroke="black" d="M1766.48,-3016.9C1766.48,-3005.51 1766.48,-2990.34 1766.48,-2977.18"/>
<polygon fill="black" stroke="black" points="1769.98,-2977.34 1766.48,-2967.34 1762.98,-2977.34 1769.98,-2977.34"/>
<text text-anchor="middle" x="1769.86" y="-2985.95" font-family="Times,serif" font-size="14.00">0</text>
</g>
<!-- 18 -->
<g id="node19" class="node">
<title>18</title>
<ellipse fill="none" stroke="black" cx="2147.48" cy="-2947.5" rx="216.23" ry="18"/>
<text text-anchor="middle" x="2147.48" y="-2942.07" font-family="Times,serif" font-size="14.00">&#45;&gt; Hi, are you Eleonore? &lt;&lt;if $mentioned_by_Jotem&gt;&gt;</text>
</g>
<!-- 0&#45;&gt;18 -->
<g id="edge7" class="edge">
<title>0&#45;&gt;18</title>
<path fill="none" stroke="black" d="M1814.35,-3023.48C1876.83,-3009.41 1987.21,-2984.57 2063.7,-2967.36"/>
<polygon fill="black" stroke="black" points="2064.27,-2970.82 2073.26,-2965.21 2062.73,-2963.99 2064.27,-2970.82"/>
<text text-anchor="middle" x="1994.48" y="-2985.95" font-family="Times,serif" font-size="14.00">0</text>
</g>
<!-- 1 -->
<g id="node2" class="node">
<title>1</title>
<ellipse fill="none" stroke="black" cx="1492.48" cy="-2772" rx="80.01" ry="18"/>
<text text-anchor="middle" x="1492.48" y="-2766.57" font-family="Times,serif" font-size="14.00">title: AfterGreeting</text>
</g>
<!-- 19 -->
<g id="node20" class="node">
<title>19</title>
<ellipse fill="none" stroke="black" cx="1492.48" cy="-2684.25" rx="248.17" ry="18"/>
<text text-anchor="middle" x="1492.48" y="-2678.82" font-family="Times,serif" font-size="14.00">&#45;&gt; You said something about mages? What do you mean by that?</text>
</g>
<!-- 1&#45;&gt;19 -->
<g id="edge8" class="edge">
<title>1&#45;&gt;19</title>
<path fill="none" stroke="black" d="M1492.48,-2753.65C1492.48,-2742.26 1492.48,-2727.09 1492.48,-2713.93"/>
<polygon fill="black" stroke="black" points="1495.98,-2714.09 1492.48,-2704.09 1488.98,-2714.09 1495.98,-2714.09"/>
<text text-anchor="middle" x="1495.86" y="-2722.7" font-family="Times,serif" font-size="14.00">0</text>
</g>
<!-- 2 -->
<g id="node3" class="node">
<title>2</title>
<ellipse fill="none" stroke="black" cx="1492.48" cy="-2596.5" rx="95.47" ry="18"/>
<text text-anchor="middle" x="1492.48" y="-2591.07" font-family="Times,serif" font-size="14.00">title: EleonoreIsAMage</text>
</g>
<!-- 20 -->
<g id="node21" class="node">
<title>20</title>
<ellipse fill="none" stroke="black" cx="1492.48" cy="-2508.75" rx="135.89" ry="18"/>
<text text-anchor="middle" x="1492.48" y="-2503.32" font-family="Times,serif" font-size="14.00">&#45;&gt; A witch? How is that different?</text>
</g>
<!-- 2&#45;&gt;20 -->
<g id="edge10" class="edge">
<title>2&#45;&gt;20</title>
<path fill="none" stroke="black" d="M1492.48,-2578.15C1492.48,-2566.76 1492.48,-2551.59 1492.48,-2538.43"/>
<polygon fill="black" stroke="black" points="1495.98,-2538.59 1492.48,-2528.59 1488.98,-2538.59 1495.98,-2538.59"/>
<text text-anchor="middle" x="1495.86" y="-2547.2" font-family="Times,serif" font-size="14.00">0</text>
</g>
<!-- 3 -->
<g id="node4" class="node">
<title>3</title>
<ellipse fill="none" stroke="black" cx="1239.48" cy="-1658.25" rx="119.93" ry="18"/>
<text text-anchor="middle" x="1239.48" y="-1652.83" font-family="Times,serif" font-size="14.00">title: EleonoreTimePreference</text>
</g>
<!-- 30 -->
<g id="node31" class="node">
<title>30</title>
<ellipse fill="none" stroke="black" cx="1239.48" cy="-1570.5" rx="103.96" ry="18"/>
<text text-anchor="middle" x="1239.48" y="-1565.08" font-family="Times,serif" font-size="14.00">&#45;&gt; Yes, I would say I am.</text>
</g>
<!-- 3&#45;&gt;30 -->
<g id="edge23" class="edge">
<title>3&#45;&gt;30</title>
<path fill="none" stroke="black" d="M1239.48,-1639.9C1239.48,-1628.51 1239.48,-1613.34 1239.48,-1600.18"/>
<polygon fill="black" stroke="black" points="1242.98,-1600.34 1239.48,-1590.34 1235.98,-1600.34 1242.98,-1600.34"/>
<text text-anchor="middle" x="1242.86" y="-1608.95" font-family="Times,serif" font-size="14.00">0</text>
</g>
<!-- 4 -->
<g id="node5" class="node">
<title>4</title>
<ellipse fill="none" stroke="black" cx="481.48" cy="-1320.75" rx="134.4" ry="18"/>
<text text-anchor="middle" x="481.48" y="-1315.33" font-family="Times,serif" font-size="14.00">title: EleonoreLivingInThePresent</text>
</g>
<!-- 5 -->
<g id="node6" class="node">
<title>5</title>
<ellipse fill="none" stroke="black" cx="660.48" cy="-1179" rx="114.94" ry="18"/>
<text text-anchor="middle" x="660.48" y="-1173.58" font-family="Times,serif" font-size="14.00">title: EleonorePaiFascination</text>
</g>
<!-- 4&#45;&gt;5 -->
<g id="edge34" class="edge">
<title>4&#45;&gt;5</title>
<path fill="none" stroke="black" d="M481.19,-1302.33C481.83,-1286.63 485.13,-1263.77 497.73,-1248.75 518.8,-1223.64 550.64,-1207.51 580.59,-1197.24"/>
<polygon fill="black" stroke="black" points="581.63,-1200.58 590.08,-1194.18 579.49,-1193.92 581.63,-1200.58"/>
<text text-anchor="middle" x="501.11" y="-1261.33" font-family="Times,serif" font-size="14.00">0</text>
</g>
<!-- 37 -->
<g id="node38" class="node">
<title>37</title>
<ellipse fill="none" stroke="black" cx="457.48" cy="-1037.25" rx="104.46" ry="18"/>
<text text-anchor="middle" x="457.48" y="-1031.83" font-family="Times,serif" font-size="14.00">&#45;&gt; Hm, yes, I actually do.</text>
</g>
<!-- 5&#45;&gt;37 -->
<g id="edge35" class="edge">
<title>5&#45;&gt;37</title>
<path fill="none" stroke="black" d="M586.47,-1164.93C550.55,-1155.11 509.26,-1138.19 481.48,-1109.25 470.5,-1097.81 464.53,-1081.17 461.3,-1066.88"/>
<polygon fill="black" stroke="black" points="464.74,-1066.25 459.45,-1057.07 457.86,-1067.55 464.74,-1066.25"/>
<text text-anchor="middle" x="529.42" y="-1129.7" font-family="Times,serif" font-size="14.00">0</text>
</g>
<!-- 38 -->
<g id="node39" class="node">
<title>38</title>
<ellipse fill="none" stroke="black" cx="859.48" cy="-1037.25" rx="74.52" ry="18"/>
<text text-anchor="middle" x="859.48" y="-1031.83" font-family="Times,serif" font-size="14.00">&#45;&gt; No, not really.</text>
</g>
<!-- 5&#45;&gt;38 -->
<g id="edge37" class="edge">
<title>5&#45;&gt;38</title>
<path fill="none" stroke="black" d="M736.47,-1165.16C772.23,-1155.44 812.79,-1138.52 839.48,-1109.25 850,-1097.72 855.03,-1081.07 857.42,-1066.8"/>
<polygon fill="black" stroke="black" points="860.88,-1067.4 858.68,-1057.03 853.93,-1066.5 860.88,-1067.4"/>
<text text-anchor="middle" x="820.93" y="-1129.7" font-family="Times,serif" font-size="14.00">0</text>
</g>
<!-- 39 -->
<g id="node40" class="node">
<title>39</title>
<ellipse fill="none" stroke="black" cx="660.48" cy="-1091.25" rx="170.32" ry="18"/>
<text text-anchor="middle" x="660.48" y="-1085.83" font-family="Times,serif" font-size="14.00">&#45;&gt; What do you mean with &#39;fascinates you&#39;?</text>
</g>
<!-- 5&#45;&gt;39 -->
<g id="edge39" class="edge">
<title>5&#45;&gt;39</title>
<path fill="none" stroke="black" d="M660.48,-1160.65C660.48,-1149.26 660.48,-1134.09 660.48,-1120.93"/>
<polygon fill="black" stroke="black" points="663.98,-1121.09 660.48,-1111.09 656.98,-1121.09 663.98,-1121.09"/>
<text text-anchor="middle" x="663.86" y="-1129.7" font-family="Times,serif" font-size="14.00">0</text>
</g>
<!-- 6 -->
<g id="node7" class="node">
<title>6</title>
<ellipse fill="none" stroke="black" cx="494.48" cy="-895.5" rx="143.38" ry="18"/>
<text text-anchor="middle" x="494.48" y="-890.08" font-family="Times,serif" font-size="14.00">title: EleonorePaiFascinationPositive</text>
</g>
<!-- 42 -->
<g id="node43" class="node">
<title>42</title>
<ellipse fill="none" stroke="black" cx="494.48" cy="-807.75" rx="70.52" ry="18"/>
<text text-anchor="middle" x="494.48" y="-802.33" font-family="Times,serif" font-size="14.00">&#45;&gt; ... Not really.</text>
</g>
<!-- 6&#45;&gt;42 -->
<g id="edge44" class="edge">
<title>6&#45;&gt;42</title>
<path fill="none" stroke="black" d="M494.48,-877.15C494.48,-865.76 494.48,-850.59 494.48,-837.43"/>
<polygon fill="black" stroke="black" points="497.98,-837.59 494.48,-827.59 490.98,-837.59 497.98,-837.59"/>
<text text-anchor="middle" x="497.86" y="-846.2" font-family="Times,serif" font-size="14.00">0</text>
</g>
<!-- 7 -->
<g id="node8" class="node">
<title>7</title>
<ellipse fill="none" stroke="black" cx="840.48" cy="-895.5" rx="147.37" ry="18"/>
<text text-anchor="middle" x="840.48" y="-890.08" font-family="Times,serif" font-size="14.00">title: EleonorePaiFascinationNegative</text>
</g>
<!-- 8 -->
<g id="node9" class="node">
<title>8</title>
<ellipse fill="none" stroke="black" cx="1059.48" cy="-1266.75" rx="109.95" ry="18"/>
<text text-anchor="middle" x="1059.48" y="-1261.33" font-family="Times,serif" font-size="14.00">title: EleonoreEnjoyingLife</text>
</g>
<!-- 9 -->
<g id="node10" class="node">
<title>9</title>
<ellipse fill="none" stroke="black" cx="660.48" cy="-1266.75" rx="147.37" ry="18"/>
<text text-anchor="middle" x="660.48" y="-1261.33" font-family="Times,serif" font-size="14.00">title: EleonoreFindTheThingYouLove</text>
</g>
<!-- 9&#45;&gt;5 -->
<g id="edge46" class="edge">
<title>9&#45;&gt;5</title>
<path fill="none" stroke="black" d="M660.48,-1248.4C660.48,-1237.01 660.48,-1221.84 660.48,-1208.68"/>
<polygon fill="black" stroke="black" points="663.98,-1208.84 660.48,-1198.84 656.98,-1208.84 663.98,-1208.84"/>
<text text-anchor="middle" x="663.86" y="-1217.45" font-family="Times,serif" font-size="14.00">0</text>
</g>
<!-- 10 -->
<g id="node11" class="node">
<title>10</title>
<ellipse fill="none" stroke="black" cx="1432.48" cy="-2117.25" rx="122.42" ry="18"/>
<text text-anchor="middle" x="1432.48" y="-2111.82" font-family="Times,serif" font-size="14.00">title: EleonoreTypesOfDreams</text>
</g>
<!-- 43 -->
<g id="node44" class="node">
<title>43</title>
<ellipse fill="none" stroke="black" cx="1429.48" cy="-2029.5" rx="353.95" ry="18"/>
<text text-anchor="middle" x="1429.48" y="-2024.08" font-family="Times,serif" font-size="14.00">&#45;&gt; But wouldn&#39;t that mean if my dream was to commit mass murder then I should persue that?</text>
</g>
<!-- 10&#45;&gt;43 -->
<g id="edge47" class="edge">
<title>10&#45;&gt;43</title>
<path fill="none" stroke="black" d="M1431.87,-2098.9C1431.48,-2087.51 1430.95,-2072.34 1430.48,-2059.18"/>
<polygon fill="black" stroke="black" points="1433.99,-2059.21 1430.14,-2049.34 1426.99,-2059.46 1433.99,-2059.21"/>
<text text-anchor="middle" x="1434.63" y="-2067.95" font-family="Times,serif" font-size="14.00">0</text>
</g>
<!-- 11 -->
<g id="node12" class="node">
<title>11</title>
<ellipse fill="none" stroke="black" cx="494.48" cy="-720" rx="113.44" ry="18"/>
<text text-anchor="middle" x="494.48" y="-714.58" font-family="Times,serif" font-size="14.00">title: EleonorePaiApprentice</text>
</g>
<!-- 48 -->
<g id="node49" class="node">
<title>48</title>
<ellipse fill="none" stroke="black" cx="494.48" cy="-632.25" rx="120.42" ry="18"/>
<text text-anchor="middle" x="494.48" y="-626.83" font-family="Times,serif" font-size="14.00">&#45;&gt; Wow... that&#39;s quite sudden.</text>
</g>
<!-- 11&#45;&gt;48 -->
<g id="edge54" class="edge">
<title>11&#45;&gt;48</title>
<path fill="none" stroke="black" d="M494.48,-701.65C494.48,-690.26 494.48,-675.09 494.48,-661.93"/>
<polygon fill="black" stroke="black" points="497.98,-662.09 494.48,-652.09 490.98,-662.09 497.98,-662.09"/>
<text text-anchor="middle" x="497.86" y="-670.7" font-family="Times,serif" font-size="14.00">0</text>
</g>
<!-- 12 -->
<g id="node13" class="node">
<title>12</title>
<ellipse fill="none" stroke="black" cx="494.48" cy="-456.75" rx="90.98" ry="18"/>
<text text-anchor="middle" x="494.48" y="-451.32" font-family="Times,serif" font-size="14.00">title: EleonoreWaiting</text>
</g>
<!-- 12&#45;&gt;12 -->
<g id="edge63" class="edge">
<title>12&#45;&gt;12</title>
<path fill="none" stroke="black" d="M577.17,-464.55C592.6,-463.59 603.46,-460.99 603.46,-456.75 603.46,-453.63 597.6,-451.4 588.38,-450.06"/>
<polygon fill="black" stroke="black" points="588.97,-446.6 578.68,-449.1 588.28,-453.57 588.97,-446.6"/>
<text text-anchor="middle" x="606.84" y="-451.32" font-family="Times,serif" font-size="14.00">0</text>
</g>
<!-- 50 -->
<g id="node51" class="node">
<title>50</title>
<ellipse fill="none" stroke="black" cx="290.48" cy="-369" rx="41.08" ry="18"/>
<text text-anchor="middle" x="290.48" y="-363.57" font-family="Times,serif" font-size="14.00">&#45;&gt; I did.</text>
</g>
<!-- 12&#45;&gt;50 -->
<g id="edge57" class="edge">
<title>12&#45;&gt;50</title>
<path fill="none" stroke="black" d="M457.06,-440.02C420.95,-424.84 366.47,-401.94 329.75,-386.5"/>
<polygon fill="black" stroke="black" points="331.39,-383.4 320.82,-382.75 328.68,-389.85 331.39,-383.4"/>
<text text-anchor="middle" x="414.13" y="-407.45" font-family="Times,serif" font-size="14.00">0</text>
</g>
<!-- 51 -->
<g id="node52" class="node">
<title>51</title>
<ellipse fill="none" stroke="black" cx="414.48" cy="-369" rx="65.04" ry="18"/>
<text text-anchor="middle" x="414.48" y="-363.57" font-family="Times,serif" font-size="14.00">&#45;&gt; No, not yet.</text>
</g>
<!-- 12&#45;&gt;51 -->
<g id="edge59" class="edge">
<title>12&#45;&gt;51</title>
<path fill="none" stroke="black" d="M478.68,-438.81C467.06,-426.36 451.09,-409.24 437.98,-395.19"/>
<polygon fill="black" stroke="black" points="440.67,-392.94 431.29,-388.01 435.55,-397.71 440.67,-392.94"/>
<text text-anchor="middle" x="465.02" y="-407.45" font-family="Times,serif" font-size="14.00">0</text>
</g>
<!-- 52 -->
<g id="node53" class="node">
<title>52</title>
<ellipse fill="none" stroke="black" cx="574.48" cy="-369" rx="77.01" ry="18"/>
<text text-anchor="middle" x="574.48" y="-363.57" font-family="Times,serif" font-size="14.00">&#45;&gt; I can&#39;t find her.</text>
</g>
<!-- 12&#45;&gt;52 -->
<g id="edge60" class="edge">
<title>12&#45;&gt;52</title>
<path fill="none" stroke="black" d="M510.29,-438.81C521.9,-426.36 537.88,-409.24 550.98,-395.19"/>
<polygon fill="black" stroke="black" points="553.41,-397.71 557.68,-388.01 548.3,-392.94 553.41,-397.71"/>
<text text-anchor="middle" x="545.02" y="-407.45" font-family="Times,serif" font-size="14.00">0</text>
</g>
<!-- 53 -->
<g id="node54" class="node">
<title>53</title>
<ellipse fill="none" stroke="black" cx="704.48" cy="-369" rx="35.1" ry="18"/>
<text text-anchor="middle" x="704.48" y="-363.57" font-family="Times,serif" font-size="14.00">&#45;&gt; Yes</text>
</g>
<!-- 12&#45;&gt;53 -->
<g id="edge61" class="edge">
<title>12&#45;&gt;53</title>
<path fill="none" stroke="black" d="M533,-440.02C571.15,-424.44 629.19,-400.74 666.98,-385.31"/>
<polygon fill="black" stroke="black" points="668.21,-388.59 676.14,-381.57 665.56,-382.11 668.21,-388.59"/>
<text text-anchor="middle" x="621.67" y="-407.45" font-family="Times,serif" font-size="14.00">0</text>
</g>
<!-- 13 -->
<g id="node14" class="node">
<title>13</title>
<ellipse fill="none" stroke="black" cx="497.48" cy="-281.25" rx="100.96" ry="18"/>
<text text-anchor="middle" x="497.48" y="-275.82" font-family="Times,serif" font-size="14.00">title: TalkedWithIsabelle</text>
</g>
<!-- 54 -->
<g id="node55" class="node">
<title>54</title>
<ellipse fill="none" stroke="black" cx="497.48" cy="-193.5" rx="150.86" ry="18"/>
<text text-anchor="middle" x="497.48" y="-188.07" font-family="Times,serif" font-size="14.00">&#45;&gt; Yes, I will become your apprentice.</text>
</g>
<!-- 13&#45;&gt;54 -->
<g id="edge64" class="edge">
<title>13&#45;&gt;54</title>
<path fill="none" stroke="black" d="M497.48,-262.9C497.48,-251.51 497.48,-236.34 497.48,-223.18"/>
<polygon fill="black" stroke="black" points="500.98,-223.34 497.48,-213.34 493.98,-223.34 500.98,-223.34"/>
<text text-anchor="middle" x="500.86" y="-231.95" font-family="Times,serif" font-size="14.00">0</text>
</g>
<!-- 15 -->
<g id="node16" class="node">
<title>15</title>
<ellipse fill="none" stroke="black" cx="1387.48" cy="-2859.75" rx="138.39" ry="18"/>
<text text-anchor="middle" x="1387.48" y="-2854.32" font-family="Times,serif" font-size="14.00">&#45;&gt; Yes, I am Pai, nice to meet you.</text>
</g>
<!-- 14&#45;&gt;15 -->
<g id="edge2" class="edge">
<title>14&#45;&gt;15</title>
<path fill="none" stroke="black" d="M1471.49,-2929.35C1455.89,-2916.62 1434.41,-2899.08 1417.08,-2884.92"/>
<polygon fill="black" stroke="black" points="1419.57,-2882.44 1409.61,-2878.82 1415.14,-2887.86 1419.57,-2882.44"/>
<text text-anchor="middle" x="1452.76" y="-2898.2" font-family="Times,serif" font-size="14.00">1</text>
</g>
<!-- 16 -->
<g id="node17" class="node">
<title>16</title>
<ellipse fill="none" stroke="black" cx="1598.48" cy="-2859.75" rx="55.06" ry="18"/>
<text text-anchor="middle" x="1598.48" y="-2854.32" font-family="Times,serif" font-size="14.00">&#45;&gt; I am Pai.</text>
</g>
<!-- 14&#45;&gt;16 -->
<g id="edge4" class="edge">
<title>14&#45;&gt;16</title>
<path fill="none" stroke="black" d="M1513.68,-2929.35C1529.73,-2916.37 1551.96,-2898.39 1569.63,-2884.09"/>
<polygon fill="black" stroke="black" points="1571.65,-2886.96 1577.22,-2877.95 1567.25,-2881.52 1571.65,-2886.96"/>
<text text-anchor="middle" x="1558.35" y="-2898.2" font-family="Times,serif" font-size="14.00">1</text>
</g>
<!-- 15&#45;&gt;1 -->
<g id="edge3" class="edge">
<title>15&#45;&gt;1</title>
<path fill="none" stroke="black" d="M1408.48,-2841.6C1424.17,-2828.78 1445.83,-2811.1 1463.23,-2796.89"/>
<polygon fill="black" stroke="black" points="1465.18,-2799.82 1470.71,-2790.78 1460.75,-2794.4 1465.18,-2799.82"/>
<text text-anchor="middle" x="1452.76" y="-2810.45" font-family="Times,serif" font-size="14.00">2</text>
</g>
<!-- 16&#45;&gt;1 -->
<g id="edge5" class="edge">
<title>16&#45;&gt;1</title>
<path fill="none" stroke="black" d="M1578.54,-2842.62C1562.46,-2829.61 1539.62,-2811.14 1521.51,-2796.49"/>
<polygon fill="black" stroke="black" points="1524.21,-2794.16 1514.23,-2790.59 1519.8,-2799.6 1524.21,-2794.16"/>
<text text-anchor="middle" x="1558.35" y="-2810.45" font-family="Times,serif" font-size="14.00">2</text>
</g>
<!-- 19&#45;&gt;2 -->
<g id="edge9" class="edge">
<title>19&#45;&gt;2</title>
<path fill="none" stroke="black" d="M1492.48,-2665.9C1492.48,-2654.51 1492.48,-2639.34 1492.48,-2626.18"/>
<polygon fill="black" stroke="black" points="1495.98,-2626.34 1492.48,-2616.34 1488.98,-2626.34 1495.98,-2626.34"/>
<text text-anchor="middle" x="1495.86" y="-2634.95" font-family="Times,serif" font-size="14.00">1</text>
</g>
<!-- 21 -->
<g id="node22" class="node">
<title>21</title>
<ellipse fill="none" stroke="black" cx="1492.48" cy="-2421" rx="141.38" ry="18"/>
<text text-anchor="middle" x="1492.48" y="-2415.57" font-family="Times,serif" font-size="14.00">&#45;&gt; What&#39;s so amazing about magic?</text>
</g>
<!-- 20&#45;&gt;21 -->
<g id="edge11" class="edge">
<title>20&#45;&gt;21</title>
<path fill="none" stroke="black" d="M1492.48,-2490.4C1492.48,-2479.01 1492.48,-2463.84 1492.48,-2450.68"/>
<polygon fill="black" stroke="black" points="1495.98,-2450.84 1492.48,-2440.84 1488.98,-2450.84 1495.98,-2450.84"/>
<text text-anchor="middle" x="1495.86" y="-2459.45" font-family="Times,serif" font-size="14.00">1</text>
</g>
<!-- 22 -->
<g id="node23" class="node">
<title>22</title>
<ellipse fill="none" stroke="black" cx="1043.48" cy="-2279.25" rx="158.35" ry="18"/>
<text text-anchor="middle" x="1043.48" y="-2273.82" font-family="Times,serif" font-size="14.00">&#45;&gt; Your dream is surprisingly... childish.</text>
</g>
<!-- 21&#45;&gt;22 -->
<g id="edge12" class="edge">
<title>21&#45;&gt;22</title>
<path fill="none" stroke="black" d="M1440.54,-2403.83C1357.77,-2378.07 1196.21,-2327.79 1106.8,-2299.96"/>
<polygon fill="black" stroke="black" points="1108.03,-2296.68 1097.44,-2297.05 1105.95,-2303.36 1108.03,-2296.68"/>
<text text-anchor="middle" x="1382.29" y="-2371.7" font-family="Times,serif" font-size="14.00">2</text>
</g>
<!-- 23 -->
<g id="node24" class="node">
<title>23</title>
<ellipse fill="none" stroke="black" cx="1492.48" cy="-2333.25" rx="151.86" ry="18"/>
<text text-anchor="middle" x="1492.48" y="-2327.82" font-family="Times,serif" font-size="14.00">&#45;&gt; The most powerful fire spell? Why?</text>
</g>
<!-- 21&#45;&gt;23 -->
<g id="edge14" class="edge">
<title>21&#45;&gt;23</title>
<path fill="none" stroke="black" d="M1492.48,-2402.65C1492.48,-2391.26 1492.48,-2376.09 1492.48,-2362.93"/>
<polygon fill="black" stroke="black" points="1495.98,-2363.09 1492.48,-2353.09 1488.98,-2363.09 1495.98,-2363.09"/>
<text text-anchor="middle" x="1495.86" y="-2371.7" font-family="Times,serif" font-size="14.00">2</text>
</g>
<!-- 26 -->
<g id="node27" class="node">
<title>26</title>
<ellipse fill="none" stroke="black" cx="1817.48" cy="-2333.25" rx="136.39" ry="18"/>
<text text-anchor="middle" x="1817.48" y="-2327.82" font-family="Times,serif" font-size="14.00">&#45;&gt; How close are you to that goal?</text>
</g>
<!-- 21&#45;&gt;26 -->
<g id="edge19" class="edge">
<title>21&#45;&gt;26</title>
<path fill="none" stroke="black" d="M1552.09,-2404.27C1607.18,-2389.74 1689.07,-2368.13 1747.3,-2352.77"/>
<polygon fill="black" stroke="black" points="1748.01,-2356.2 1756.79,-2350.26 1746.22,-2349.43 1748.01,-2356.2"/>
<text text-anchor="middle" x="1687.47" y="-2371.7" font-family="Times,serif" font-size="14.00">2</text>
</g>
<!-- 22&#45;&gt;3 -->
<g id="edge13" class="edge">
<title>22&#45;&gt;3</title>
<path fill="none" stroke="black" d="M966.54,-2263.14C887.98,-2245.44 777.48,-2213.26 777.48,-2172.25 777.48,-2172.25 777.48,-2172.25 777.48,-1745 777.48,-1709.62 989.68,-1682.81 1126.46,-1669.2"/>
<polygon fill="black" stroke="black" points="1126.69,-1672.7 1136.3,-1668.23 1126.01,-1665.73 1126.69,-1672.7"/>
<text text-anchor="middle" x="780.86" y="-1980.2" font-family="Times,serif" font-size="14.00">3</text>
</g>
<!-- 24 -->
<g id="node25" class="node">
<title>24</title>
<ellipse fill="none" stroke="black" cx="1481.48" cy="-2225.25" rx="215.73" ry="18"/>
<text text-anchor="middle" x="1481.48" y="-2219.82" font-family="Times,serif" font-size="14.00">&#45;&gt; So you don&#39;t really have a reason behind your dream?</text>
</g>
<!-- 23&#45;&gt;24 -->
<g id="edge15" class="edge">
<title>23&#45;&gt;24</title>
<path fill="none" stroke="black" d="M1490.71,-2315.22C1489.03,-2299.01 1486.47,-2274.31 1484.47,-2255.04"/>
<polygon fill="black" stroke="black" points="1487.95,-2254.68 1483.44,-2245.1 1480.99,-2255.4 1487.95,-2254.68"/>
<text text-anchor="middle" x="1491.98" y="-2273.82" font-family="Times,serif" font-size="14.00">3</text>
</g>
<!-- 25 -->
<g id="node26" class="node">
<title>25</title>
<ellipse fill="none" stroke="black" cx="1791.48" cy="-2171.25" rx="69.53" ry="18"/>
<text text-anchor="middle" x="1791.48" y="-2165.82" font-family="Times,serif" font-size="14.00">&#45;&gt; Is it difficult?</text>
</g>
<!-- 23&#45;&gt;25 -->
<g id="edge17" class="edge">
<title>23&#45;&gt;25</title>
<path fill="none" stroke="black" d="M1543.41,-2315.97C1588.11,-2300.56 1654.01,-2275.06 1706.48,-2243.25 1728.12,-2230.13 1749.98,-2211.73 1766.11,-2196.95"/>
<polygon fill="black" stroke="black" points="1768.42,-2199.59 1773.34,-2190.2 1763.64,-2194.47 1768.42,-2199.59"/>
<text text-anchor="middle" x="1674.35" y="-2273.82" font-family="Times,serif" font-size="14.00">3</text>
</g>
<!-- 24&#45;&gt;10 -->
<g id="edge16" class="edge">
<title>24&#45;&gt;10</title>
<path fill="none" stroke="black" d="M1473.61,-2207.22C1465.97,-2190.7 1454.26,-2165.37 1445.29,-2145.95"/>
<polygon fill="black" stroke="black" points="1448.51,-2144.57 1441.13,-2136.96 1442.15,-2147.51 1448.51,-2144.57"/>
<text text-anchor="middle" x="1467.61" y="-2165.82" font-family="Times,serif" font-size="14.00">4</text>
</g>
<!-- 25&#45;&gt;3 -->
<g id="edge18" class="edge">
<title>25&#45;&gt;3</title>
<path fill="none" stroke="black" d="M1797.27,-2153.15C1803.17,-2134.15 1811.48,-2102.43 1811.48,-2074.38 1811.48,-2074.38 1811.48,-2074.38 1811.48,-1745 1811.48,-1700 1531.03,-1675.98 1362.88,-1665.62"/>
<polygon fill="black" stroke="black" points="1363.17,-1662.13 1352.98,-1665.02 1362.75,-1669.11 1363.17,-1662.13"/>
<text text-anchor="middle" x="1814.86" y="-1936.33" font-family="Times,serif" font-size="14.00">4</text>
</g>
<!-- 27 -->
<g id="node28" class="node">
<title>27</title>
<ellipse fill="none" stroke="black" cx="1967.48" cy="-2225.25" rx="145.37" ry="18"/>
<text text-anchor="middle" x="1967.48" y="-2219.82" font-family="Times,serif" font-size="14.00">&#45;&gt; So you didn&#39;t create that spell yet?</text>
</g>
<!-- 26&#45;&gt;27 -->
<g id="edge20" class="edge">
<title>26&#45;&gt;27</title>
<path fill="none" stroke="black" d="M1841.58,-2315.22C1866.73,-2297.45 1906.34,-2269.46 1934.4,-2249.63"/>
<polygon fill="black" stroke="black" points="1936.06,-2252.74 1942.21,-2244.11 1932.02,-2247.02 1936.06,-2252.74"/>
<text text-anchor="middle" x="1918.06" y="-2273.82" font-family="Times,serif" font-size="14.00">3</text>
</g>
<!-- 28 -->
<g id="node29" class="node">
<title>28</title>
<ellipse fill="none" stroke="black" cx="2354.48" cy="-2117.25" rx="240.68" ry="18"/>
<text text-anchor="middle" x="2354.48" y="-2111.82" font-family="Times,serif" font-size="14.00">&#45;&gt; Is there a reason for that? Or is it just very time consuming?</text>
</g>
<!-- 27&#45;&gt;28 -->
<g id="edge21" class="edge">
<title>27&#45;&gt;28</title>
<path fill="none" stroke="black" d="M2025.42,-2208.38C2093.95,-2189.61 2208.08,-2158.35 2282.29,-2138.02"/>
<polygon fill="black" stroke="black" points="2282.76,-2141.52 2291.48,-2135.5 2280.92,-2134.77 2282.76,-2141.52"/>
<text text-anchor="middle" x="2221.63" y="-2165.82" font-family="Times,serif" font-size="14.00">4</text>
</g>
<!-- 29 -->
<g id="node30" class="node">
<title>29</title>
<ellipse fill="none" stroke="black" cx="1967.48" cy="-2117.25" rx="128.41" ry="18"/>
<text text-anchor="middle" x="1967.48" y="-2111.82" font-family="Times,serif" font-size="14.00">&#45;&gt; Because you are a bad mage?</text>
</g>
<!-- 27&#45;&gt;29 -->
<g id="edge22" class="edge">
<title>27&#45;&gt;29</title>
<path fill="none" stroke="black" d="M1967.48,-2207.22C1967.48,-2191.01 1967.48,-2166.31 1967.48,-2147.04"/>
<polygon fill="black" stroke="black" points="1970.98,-2147.1 1967.48,-2137.1 1963.98,-2147.1 1970.98,-2147.1"/>
<text text-anchor="middle" x="1970.86" y="-2165.82" font-family="Times,serif" font-size="14.00">4</text>
</g>
<!-- 31 -->
<g id="node32" class="node">
<title>31</title>
<ellipse fill="none" stroke="black" cx="340.48" cy="-1482.75" rx="340.48" ry="18"/>
<text text-anchor="middle" x="340.48" y="-1477.33" font-family="Times,serif" font-size="14.00">&#45;&gt; But wouldn&#39;t that mean that you are always living in the future and never in the present?</text>
</g>
<!-- 30&#45;&gt;31 -->
<g id="edge24" class="edge">
<title>30&#45;&gt;31</title>
<path fill="none" stroke="black" d="M1150,-1560.96C1001.62,-1546.81 702.19,-1518.25 512.03,-1500.11"/>
<polygon fill="black" stroke="black" points="512.59,-1496.65 502.3,-1499.19 511.92,-1503.62 512.59,-1496.65"/>
<text text-anchor="middle" x="873.88" y="-1521.2" font-family="Times,serif" font-size="14.00">1</text>
</g>
<!-- 32 -->
<g id="node33" class="node">
<title>32</title>
<ellipse fill="none" stroke="black" cx="933.48" cy="-1482.75" rx="234.69" ry="18"/>
<text text-anchor="middle" x="933.48" y="-1477.33" font-family="Times,serif" font-size="14.00">&#45;&gt; This doesn&#39;t really sound like you are enjoying life though.</text>
</g>
<!-- 30&#45;&gt;32 -->
<g id="edge26" class="edge">
<title>30&#45;&gt;32</title>
<path fill="none" stroke="black" d="M1186.53,-1554.66C1136.17,-1540.55 1060.07,-1519.22 1004.48,-1503.64"/>
<polygon fill="black" stroke="black" points="1005.68,-1500.35 995.1,-1501.02 1003.79,-1507.09 1005.68,-1500.35"/>
<text text-anchor="middle" x="1117.26" y="-1521.2" font-family="Times,serif" font-size="14.00">1</text>
</g>
<!-- 35 -->
<g id="node36" class="node">
<title>35</title>
<ellipse fill="none" stroke="black" cx="1341.48" cy="-1482.75" rx="155.35" ry="18"/>
<text text-anchor="middle" x="1341.48" y="-1477.33" font-family="Times,serif" font-size="14.00">&#45;&gt; How does living in a city affect this?</text>
</g>
<!-- 30&#45;&gt;35 -->
<g id="edge31" class="edge">
<title>30&#45;&gt;35</title>
<path fill="none" stroke="black" d="M1259.63,-1552.56C1274.76,-1539.84 1295.69,-1522.24 1312.6,-1508.03"/>
<polygon fill="black" stroke="black" points="1314.46,-1511.04 1319.86,-1501.92 1309.96,-1505.68 1314.46,-1511.04"/>
<text text-anchor="middle" x="1302.99" y="-1521.2" font-family="Times,serif" font-size="14.00">1</text>
</g>
<!-- 36 -->
<g id="node37" class="node">
<title>36</title>
<ellipse fill="none" stroke="black" cx="1503.48" cy="-1428.75" rx="83" ry="18"/>
<text text-anchor="middle" x="1503.48" y="-1423.33" font-family="Times,serif" font-size="14.00">&#45;&gt; I agree with you.</text>
</g>
<!-- 30&#45;&gt;36 -->
<g id="edge32" class="edge">
<title>30&#45;&gt;36</title>
<path fill="none" stroke="black" d="M1322.14,-1559.23C1391.6,-1548.71 1483.03,-1529.74 1505.48,-1500.75 1514.62,-1488.94 1514.67,-1472.42 1512.18,-1458.28"/>
<polygon fill="black" stroke="black" points="1515.61,-1457.57 1509.97,-1448.6 1508.78,-1459.13 1515.61,-1457.57"/>
<text text-anchor="middle" x="1482.35" y="-1521.2" font-family="Times,serif" font-size="14.00">1</text>
</g>
<!-- 31&#45;&gt;4 -->
<g id="edge25" class="edge">
<title>31&#45;&gt;4</title>
<path fill="none" stroke="black" d="M355.84,-1464.32C380.76,-1436.04 430.13,-1380.03 459,-1347.26"/>
<polygon fill="black" stroke="black" points="461.58,-1349.63 465.57,-1339.81 456.33,-1345 461.58,-1349.63"/>
<text text-anchor="middle" x="405.31" y="-1423.33" font-family="Times,serif" font-size="14.00">2</text>
</g>
<!-- 33 -->
<g id="node34" class="node">
<title>33</title>
<ellipse fill="none" stroke="black" cx="660.48" cy="-1374.75" rx="153.86" ry="18"/>
<text text-anchor="middle" x="660.48" y="-1369.33" font-family="Times,serif" font-size="14.00">&#45;&gt; How do you find the thing you love?</text>
</g>
<!-- 32&#45;&gt;33 -->
<g id="edge27" class="edge">
<title>32&#45;&gt;33</title>
<path fill="none" stroke="black" d="M889.32,-1464.6C841.41,-1446 764.95,-1416.31 713.76,-1396.44"/>
<polygon fill="black" stroke="black" points="715.23,-1393.25 704.64,-1392.9 712.7,-1399.78 715.23,-1393.25"/>
<text text-anchor="middle" x="840.76" y="-1423.33" font-family="Times,serif" font-size="14.00">2</text>
</g>
<!-- 34 -->
<g id="node35" class="node">
<title>34</title>
<ellipse fill="none" stroke="black" cx="1059.48" cy="-1374.75" rx="226.71" ry="18"/>
<text text-anchor="middle" x="1059.48" y="-1369.33" font-family="Times,serif" font-size="14.00">&#45;&gt; Hm, though that doesn&#39;t sould like you are enjoying life.</text>
</g>
<!-- 32&#45;&gt;34 -->
<g id="edge29" class="edge">
<title>32&#45;&gt;34</title>
<path fill="none" stroke="black" d="M954.01,-1464.48C974.69,-1447.08 1006.81,-1420.06 1030.17,-1400.41"/>
<polygon fill="black" stroke="black" points="1032.41,-1403.1 1037.81,-1393.98 1027.9,-1397.74 1032.41,-1403.1"/>
<text text-anchor="middle" x="1018.5" y="-1423.33" font-family="Times,serif" font-size="14.00">2</text>
</g>
<!-- 33&#45;&gt;9 -->
<g id="edge28" class="edge">
<title>33&#45;&gt;9</title>
<path fill="none" stroke="black" d="M660.48,-1356.72C660.48,-1340.51 660.48,-1315.81 660.48,-1296.54"/>
<polygon fill="black" stroke="black" points="663.98,-1296.6 660.48,-1286.6 656.98,-1296.6 663.98,-1296.6"/>
<text text-anchor="middle" x="663.86" y="-1315.33" font-family="Times,serif" font-size="14.00">3</text>
</g>
<!-- 34&#45;&gt;8 -->
<g id="edge30" class="edge">
<title>34&#45;&gt;8</title>
<path fill="none" stroke="black" d="M1059.48,-1356.72C1059.48,-1340.51 1059.48,-1315.81 1059.48,-1296.54"/>
<polygon fill="black" stroke="black" points="1062.98,-1296.6 1059.48,-1286.6 1055.98,-1296.6 1062.98,-1296.6"/>
<text text-anchor="middle" x="1062.86" y="-1315.33" font-family="Times,serif" font-size="14.00">3</text>
</g>
<!-- 36&#45;&gt;5 -->
<g id="edge33" class="edge">
<title>36&#45;&gt;5</title>
<path fill="none" stroke="black" d="M1480.43,-1411.03C1429.09,-1374.74 1300.25,-1288.79 1178.48,-1248.75 1048.25,-1205.93 891.27,-1189.7 784.5,-1183.6"/>
<polygon fill="black" stroke="black" points="784.72,-1180.11 774.54,-1183.05 784.34,-1187.1 784.72,-1180.11"/>
<text text-anchor="middle" x="1371.35" y="-1315.33" font-family="Times,serif" font-size="14.00">2</text>
</g>
<!-- 37&#45;&gt;6 -->
<g id="edge36" class="edge">
<title>37&#45;&gt;6</title>
<path fill="none" stroke="black" d="M457.78,-1018.77C458.38,-1004.24 460.07,-983.11 464.73,-965.25 468.41,-951.14 474.58,-936.19 480.34,-923.86"/>
<polygon fill="black" stroke="black" points="483.36,-925.66 484.58,-915.14 477.06,-922.61 483.36,-925.66"/>
<text text-anchor="middle" x="468.11" y="-977.83" font-family="Times,serif" font-size="14.00">1</text>
</g>
<!-- 38&#45;&gt;7 -->
<g id="edge38" class="edge">
<title>38&#45;&gt;7</title>
<path fill="none" stroke="black" d="M857.11,-1018.83C853.91,-995.27 848.16,-952.96 844.33,-924.8"/>
<polygon fill="black" stroke="black" points="847.84,-924.63 843.02,-915.2 840.9,-925.58 847.84,-924.63"/>
<text text-anchor="middle" x="858.05" y="-977.83" font-family="Times,serif" font-size="14.00">1</text>
</g>
<!-- 40 -->
<g id="node41" class="node">
<title>40</title>
<ellipse fill="none" stroke="black" cx="581.48" cy="-983.25" rx="101.46" ry="18"/>
<text text-anchor="middle" x="581.48" y="-977.83" font-family="Times,serif" font-size="14.00">&#45;&gt; Yes, I would say I do.</text>
</g>
<!-- 39&#45;&gt;40 -->
<g id="edge40" class="edge">
<title>39&#45;&gt;40</title>
<path fill="none" stroke="black" d="M647.79,-1073.22C635.19,-1056.32 615.72,-1030.19 601.12,-1010.61"/>
<polygon fill="black" stroke="black" points="604.09,-1008.73 595.31,-1002.8 598.48,-1012.91 604.09,-1008.73"/>
<text text-anchor="middle" x="636.05" y="-1031.83" font-family="Times,serif" font-size="14.00">1</text>
</g>
<!-- 41 -->
<g id="node42" class="node">
<title>41</title>
<ellipse fill="none" stroke="black" cx="762.48" cy="-983.25" rx="61.54" ry="18"/>
<text text-anchor="middle" x="762.48" y="-977.83" font-family="Times,serif" font-size="14.00">&#45;&gt; No I don&#39;t.</text>
</g>
<!-- 39&#45;&gt;41 -->
<g id="edge42" class="edge">
<title>39&#45;&gt;41</title>
<path fill="none" stroke="black" d="M676.87,-1073.22C693.55,-1055.89 719.58,-1028.84 738.56,-1009.11"/>
<polygon fill="black" stroke="black" points="741.01,-1011.61 745.42,-1001.98 735.96,-1006.76 741.01,-1011.61"/>
<text text-anchor="middle" x="729.95" y="-1031.83" font-family="Times,serif" font-size="14.00">1</text>
</g>
<!-- 40&#45;&gt;6 -->
<g id="edge41" class="edge">
<title>40&#45;&gt;6</title>
<path fill="none" stroke="black" d="M564.29,-965.31C551.63,-952.82 534.19,-935.64 519.91,-921.57"/>
<polygon fill="black" stroke="black" points="522.59,-919.29 513.01,-914.76 517.67,-924.27 522.59,-919.29"/>
<text text-anchor="middle" x="549.15" y="-933.95" font-family="Times,serif" font-size="14.00">2</text>
</g>
<!-- 41&#45;&gt;7 -->
<g id="edge43" class="edge">
<title>41&#45;&gt;7</title>
<path fill="none" stroke="black" d="M777.52,-965.72C788.74,-953.38 804.28,-936.3 817.11,-922.2"/>
<polygon fill="black" stroke="black" points="819.53,-924.74 823.67,-914.99 814.35,-920.03 819.53,-924.74"/>
<text text-anchor="middle" x="811.84" y="-933.95" font-family="Times,serif" font-size="14.00">2</text>
</g>
<!-- 42&#45;&gt;11 -->
<g id="edge45" class="edge">
<title>42&#45;&gt;11</title>
<path fill="none" stroke="black" d="M494.48,-789.4C494.48,-778.01 494.48,-762.84 494.48,-749.68"/>
<polygon fill="black" stroke="black" points="497.98,-749.84 494.48,-739.84 490.98,-749.84 497.98,-749.84"/>
<text text-anchor="middle" x="497.86" y="-758.45" font-family="Times,serif" font-size="14.00">1</text>
</g>
<!-- 44 -->
<g id="node45" class="node">
<title>44</title>
<ellipse fill="none" stroke="black" cx="1429.48" cy="-1941.75" rx="133.4" ry="18"/>
<text text-anchor="middle" x="1429.48" y="-1936.33" font-family="Times,serif" font-size="14.00">&#45;&gt; Is that always the case though?</text>
</g>
<!-- 43&#45;&gt;44 -->
<g id="edge48" class="edge">
<title>43&#45;&gt;44</title>
<path fill="none" stroke="black" d="M1429.48,-2011.15C1429.48,-1999.76 1429.48,-1984.59 1429.48,-1971.43"/>
<polygon fill="black" stroke="black" points="1432.98,-1971.59 1429.48,-1961.59 1425.98,-1971.59 1432.98,-1971.59"/>
<text text-anchor="middle" x="1432.86" y="-1980.2" font-family="Times,serif" font-size="14.00">1</text>
</g>
<!-- 45 -->
<g id="node46" class="node">
<title>45</title>
<ellipse fill="none" stroke="black" cx="1089.48" cy="-1800" rx="296.57" ry="18"/>
<text text-anchor="middle" x="1089.48" y="-1794.58" font-family="Times,serif" font-size="14.00">&#45;&gt; But what about your claim of humans being more creative than destructive?</text>
</g>
<!-- 44&#45;&gt;45 -->
<g id="edge49" class="edge">
<title>44&#45;&gt;45</title>
<path fill="none" stroke="black" d="M1312.51,-1932.79C1225.01,-1924.11 1115.78,-1906.56 1087.48,-1872 1077.86,-1860.26 1077.96,-1843.39 1080.65,-1829.04"/>
<polygon fill="black" stroke="black" points="1083.96,-1830.24 1082.87,-1819.7 1077.15,-1828.61 1083.96,-1830.24"/>
<text text-anchor="middle" x="1156.33" y="-1892.45" font-family="Times,serif" font-size="14.00">2</text>
</g>
<!-- 46 -->
<g id="node47" class="node">
<title>46</title>
<ellipse fill="none" stroke="black" cx="1436.48" cy="-1854" rx="339.98" ry="18"/>
<text text-anchor="middle" x="1436.48" y="-1848.58" font-family="Times,serif" font-size="14.00">&#45;&gt; I don&#39;t quite agree. Easy tasks don&#39;t have to be less meaningful than more difficult tasks.</text>
</g>
<!-- 44&#45;&gt;46 -->
<g id="edge51" class="edge">
<title>44&#45;&gt;46</title>
<path fill="none" stroke="black" d="M1430.9,-1923.4C1431.83,-1912.01 1433.07,-1896.84 1434.14,-1883.68"/>
<polygon fill="black" stroke="black" points="1437.62,-1884.09 1434.94,-1873.84 1430.64,-1883.52 1437.62,-1884.09"/>
<text text-anchor="middle" x="1436.98" y="-1892.45" font-family="Times,serif" font-size="14.00">2</text>
</g>
<!-- 45&#45;&gt;3 -->
<g id="edge50" class="edge">
<title>45&#45;&gt;3</title>
<path fill="none" stroke="black" d="M1070.68,-1781.71C1066.23,-1776.5 1062.1,-1770.44 1059.73,-1764 1054.21,-1748.98 1050.66,-1741.18 1059.73,-1728 1078.71,-1700.43 1110.35,-1683.91 1141.85,-1674.01"/>
<polygon fill="black" stroke="black" points="1142.44,-1677.49 1151.06,-1671.33 1140.48,-1670.77 1142.44,-1677.49"/>
<text text-anchor="middle" x="1063.11" y="-1740.58" font-family="Times,serif" font-size="14.00">3</text>
</g>
<!-- 47 -->
<g id="node48" class="node">
<title>47</title>
<ellipse fill="none" stroke="black" cx="1429.48" cy="-1746" rx="354.45" ry="18"/>
<text text-anchor="middle" x="1429.48" y="-1740.58" font-family="Times,serif" font-size="14.00">&#45;&gt; Okay, let&#39;s leave it at that, I get your point. But what does that have to do with your dream?</text>
</g>
<!-- 46&#45;&gt;47 -->
<g id="edge52" class="edge">
<title>46&#45;&gt;47</title>
<path fill="none" stroke="black" d="M1435.36,-1835.97C1434.29,-1819.76 1432.66,-1795.06 1431.38,-1775.79"/>
<polygon fill="black" stroke="black" points="1434.88,-1775.6 1430.73,-1765.85 1427.89,-1776.06 1434.88,-1775.6"/>
<text text-anchor="middle" x="1437.39" y="-1794.58" font-family="Times,serif" font-size="14.00">3</text>
</g>
<!-- 47&#45;&gt;3 -->
<g id="edge53" class="edge">
<title>47&#45;&gt;3</title>
<path fill="none" stroke="black" d="M1391.03,-1727.65C1360.8,-1714 1318.55,-1694.93 1286.34,-1680.4"/>
<polygon fill="black" stroke="black" points="1288.19,-1677.39 1277.64,-1676.47 1285.31,-1683.78 1288.19,-1677.39"/>
<text text-anchor="middle" x="1354.87" y="-1696.7" font-family="Times,serif" font-size="14.00">4</text>
</g>
<!-- 49 -->
<g id="node50" class="node">
<title>49</title>
<ellipse fill="none" stroke="black" cx="494.48" cy="-544.5" rx="128.91" ry="18"/>
<text text-anchor="middle" x="494.48" y="-539.08" font-family="Times,serif" font-size="14.00">&#45;&gt; Hm, I guess I can talk to her.</text>
</g>
<!-- 48&#45;&gt;49 -->
<g id="edge55" class="edge">
<title>48&#45;&gt;49</title>
<path fill="none" stroke="black" d="M494.48,-613.9C494.48,-602.51 494.48,-587.34 494.48,-574.18"/>
<polygon fill="black" stroke="black" points="497.98,-574.34 494.48,-564.34 490.98,-574.34 497.98,-574.34"/>
<text text-anchor="middle" x="497.86" y="-582.95" font-family="Times,serif" font-size="14.00">1</text>
</g>
<!-- 49&#45;&gt;12 -->
<g id="edge56" class="edge">
<title>49&#45;&gt;12</title>
<path fill="none" stroke="black" d="M494.48,-526.15C494.48,-514.76 494.48,-499.59 494.48,-486.43"/>
<polygon fill="black" stroke="black" points="497.98,-486.59 494.48,-476.59 490.98,-486.59 497.98,-486.59"/>
<text text-anchor="middle" x="497.86" y="-495.2" font-family="Times,serif" font-size="14.00">2</text>
</g>
<!-- 50&#45;&gt;13 -->
<g id="edge58" class="edge">
<title>50&#45;&gt;13</title>
<path fill="none" stroke="black" d="M319.7,-355.9C353.08,-342.07 408.25,-319.21 448.29,-302.63"/>
<polygon fill="black" stroke="black" points="449.6,-305.87 457.5,-298.81 446.92,-299.41 449.6,-305.87"/>
<text text-anchor="middle" x="415.9" y="-319.7" font-family="Times,serif" font-size="14.00">1</text>
</g>
<!-- 53&#45;&gt;13 -->
<g id="edge62" class="edge">
<title>53&#45;&gt;13</title>
<path fill="none" stroke="black" d="M677.84,-356.97C644.77,-343.26 587.69,-319.62 546.6,-302.6"/>
<polygon fill="black" stroke="black" points="547.97,-299.38 537.39,-298.78 545.29,-305.84 547.97,-299.38"/>
<text text-anchor="middle" x="622.9" y="-319.7" font-family="Times,serif" font-size="14.00">2</text>
</g>
<!-- 55 -->
<g id="node56" class="node">
<title>55</title>
<ellipse fill="none" stroke="black" cx="497.48" cy="-105.75" rx="431.3" ry="18"/>
<text text-anchor="middle" x="497.48" y="-100.33" font-family="Times,serif" font-size="14.00">&#45;&gt; It&#39;s not just one thing. But I guess I simply don&#39;t want to regret not joining you. I think this is a rare opportunity.</text>
</g>
<!-- 54&#45;&gt;55 -->
<g id="edge65" class="edge">
<title>54&#45;&gt;55</title>
<path fill="none" stroke="black" d="M497.48,-175.15C497.48,-163.76 497.48,-148.59 497.48,-135.43"/>
<polygon fill="black" stroke="black" points="500.98,-135.59 497.48,-125.59 493.98,-135.59 500.98,-135.59"/>
<text text-anchor="middle" x="500.86" y="-144.2" font-family="Times,serif" font-size="14.00">1</text>
</g>
<!-- 56 -->
<g id="node57" class="node">
<title>56</title>
<ellipse fill="none" stroke="black" cx="497.48" cy="-18" rx="124.42" ry="18"/>
<text text-anchor="middle" x="497.48" y="-12.57" font-family="Times,serif" font-size="14.00">&#45;&gt; Yes please! *Join Eleonore*</text>
</g>
<!-- 55&#45;&gt;56 -->
<g id="edge66" class="edge">
<title>55&#45;&gt;56</title>
<path fill="none" stroke="black" d="M497.48,-87.4C497.48,-76.01 497.48,-60.84 497.48,-47.68"/>
<polygon fill="black" stroke="black" points="500.98,-47.84 497.48,-37.84 493.98,-47.84 500.98,-47.84"/>
<text text-anchor="middle" x="500.86" y="-56.45" font-family="Times,serif" font-size="14.00">2</text>
</g>
</g>
</svg>
